<svg xmlns="http://www.w3.org/2000/svg" viewBox="0 0 120 120">
  <defs>
    <linearGradient id="bg" x1="0" y1="0" x2="0" y2="1"><stop offset="0%" stop-color="#1a1520"/><stop offset="100%" stop-color="#0f0d14"/></linearGradient>
    <linearGradient id="sake" x1="0" y1="0" x2="0" y2="1"><stop offset="0%" stop-color="#f5f0e0"/><stop offset="100%" stop-color="#d4c9a8"/></linearGradient>
  </defs>
  <rect width="120" height="120" rx="16" fill="url(#bg)"/>
  <!-- Tokkuri (sake bottle) -->
  <path d="M50 25 Q48 25 47 30 L47 40 Q40 45 40 55 L40 90 Q40 95 45 95 L55 95 Q60 95 60 90 L60 55 Q60 45 53 40 L53 30 Q52 25 50 25 Z" fill="rgba(255,255,255,0.1)" stroke="rgba(255,255,255,0.15)" stroke-width="1"/>
  <!-- Sake liquid inside tokkuri -->
  <path d="M42 55 L42 88 Q42 93 46 93 L54 93 Q58 93 58 88 L58 55 Q58 48 50 46 Q42 48 42 55 Z" fill="url(#sake)" opacity="0.4"/>
  <!-- Ochoko (cup) -->
  <path d="M68 70 L65 95 Q65 98 68 98 L88 98 Q91 98 91 95 L88 70 Z" fill="rgba(255,255,255,0.1)" stroke="rgba(255,255,255,0.15)" stroke-width="1"/>
  <!-- Sake in cup -->
  <path d="M69 75 L67 93 Q67 96 69 96 L87 96 Q89 96 89 93 L87 75 Z" fill="url(#sake)" opacity="0.6"/>
  <!-- Cup pattern -->
  <circle cx="78" cy="85" r="6" fill="none" stroke="rgba(255,255,255,0.06)" stroke-width="1"/>
</svg>
