<svg xmlns="http://www.w3.org/2000/svg" viewBox="0 0 120 120">
  <defs>
    <linearGradient id="bg" x1="0" y1="0" x2="0" y2="1"><stop offset="0%" stop-color="#161820"/><stop offset="100%" stop-color="#0c0e14"/></linearGradient>
  </defs>
  <rect width="120" height="120" rx="16" fill="url(#bg)"/>
  <!-- Rocks glass -->
  <path d="M35 45 L40 95 Q40 100 45 100 L75 100 Q80 100 80 95 L85 45 Z" fill="rgba(255,255,255,0.06)" stroke="rgba(255,255,255,0.12)" stroke-width="1"/>
  <!-- Liquid (clear with slight tint) -->
  <path d="M40 60 L43 93 Q43 97 47 97 L73 97 Q77 97 77 93 L80 60 Z" fill="rgba(200,210,220,0.12)"/>
  <!-- Ice cubes -->
  <rect x="44" y="50" width="15" height="13" rx="3" fill="rgba(255,255,255,0.18)" transform="rotate(-5 51 56)"/>
  <rect x="62" y="48" width="14" height="12" rx="3" fill="rgba(255,255,255,0.14)" transform="rotate(8 69 54)"/>
  <rect x="50" y="62" width="16" height="11" rx="3" fill="rgba(255,255,255,0.1)" transform="rotate(-3 58 67)"/>
  <!-- Glass shine -->
  <line x1="38" y1="50" x2="41" y2="90" stroke="rgba(255,255,255,0.06)" stroke-width="2"/>
</svg>
